<svg xmlns="http://www.w3.org/2000/svg" viewBox="0 0 1972 423" width="1972" height="423">
<title>DocsScale</title>
<g><path d="M0 0 C2 -0.01 3.99 -0.04 5.99 -0.07 C16 -0.11 26.6 0.23 34.84 6.62 C35.24 6.92 35.24 6.92 37.28 8.46 C39.16 10 41.01 11.57 42.84 13.18 C45.46 15.24 45.46 15.24 49.46 15.24 C49.46 16.23 49.46 17.22 49.46 18.24 C48.8 18.24 48.14 18.24 47.46 18.24 C47.63 18.49 47.63 18.49 48.49 19.74 C48.93 20.42 49.38 21.1 49.84 21.8 C50.28 22.46 50.72 23.13 51.18 23.81 C54.09 29.32 54.76 34.86 54.76 41 C54.76 41.75 54.77 42.49 54.78 43.25 C54.79 45.69 54.8 48.13 54.8 50.56 C54.81 52.27 54.81 53.98 54.82 55.69 C54.83 59.27 54.84 62.85 54.84 66.43 C54.84 70.99 54.86 75.55 54.9 80.11 C54.92 83.64 54.92 87.17 54.92 90.7 C54.92 92.38 54.93 94.06 54.95 95.74 C55.03 105.65 54.46 113.97 50.46 123.24 C49.8 123.24 49.14 123.24 48.46 123.24 C48.28 123.9 48.09 124.56 47.9 125.24 C43.92 133.54 37.16 138.98 28.74 142.32 C17.67 145.92 7.06 145.75 -4.47 145.63 C-6.55 145.62 -8.64 145.62 -10.73 145.61 C-16.18 145.6 -21.62 145.56 -27.07 145.51 C-32.65 145.47 -38.23 145.46 -43.8 145.44 C-54.72 145.39 -65.63 145.32 -76.54 145.24 C-76.53 146.29 -76.53 147.34 -76.52 148.42 C-76.48 158.32 -76.45 168.22 -76.43 178.13 C-76.42 183.22 -76.41 188.31 -76.38 193.4 C-76.36 198.31 -76.35 203.23 -76.35 208.14 C-76.34 210.01 -76.33 211.89 -76.32 213.76 C-76.31 216.39 -76.31 219.01 -76.31 221.64 C-76.3 222.41 -76.29 223.18 -76.29 223.98 C-76.31 230.62 -78.06 236.34 -80.54 242.49 C-80.87 243.32 -81.2 244.15 -81.54 245.01 C-82.54 247.24 -82.54 247.24 -84.54 250.24 C-84.54 251.56 -84.54 252.88 -84.54 254.24 C-85.53 254.24 -86.52 254.24 -87.54 254.24 C-89.01 255.38 -89.01 255.38 -90.6 256.93 C-98.51 264.04 -106.76 266.39 -117.16 266.39 C-118.02 266.39 -118.89 266.39 -119.79 266.4 C-122.66 266.41 -125.53 266.41 -128.4 266.41 C-130.4 266.41 -132.4 266.41 -134.4 266.42 C-138.58 266.42 -142.77 266.43 -146.96 266.43 C-152.32 266.43 -157.68 266.44 -163.05 266.46 C-167.17 266.47 -171.3 266.47 -175.43 266.47 C-177.4 266.47 -179.38 266.47 -181.36 266.48 C-184.12 266.49 -186.89 266.49 -189.66 266.48 C-190.47 266.49 -191.28 266.49 -192.12 266.5 C-202.33 266.44 -202.33 266.44 -205.54 263.24 C-206.69 257.24 -206.68 251.32 -206.67 245.23 C-206.67 244.71 -206.67 244.71 -206.67 242.07 C-206.67 239.87 -206.67 237.68 -206.67 235.48 C-206.66 232.12 -206.67 228.76 -206.67 225.4 C-206.67 223.26 -206.67 221.12 -206.67 218.98 C-206.67 217.98 -206.67 216.98 -206.67 215.95 C-206.67 215.01 -206.67 214.07 -206.66 213.1 C-206.66 212.28 -206.66 211.46 -206.66 210.62 C-206.53 208.08 -206.09 205.72 -205.54 203.24 C-206.2 203.24 -206.86 203.24 -207.54 203.24 C-207.54 202.58 -207.54 201.92 -207.54 201.24 C-206.88 201.24 -206.22 201.24 -205.54 201.24 C-205.5 200.94 -205.5 200.94 -205.29 199.41 C-202.46 178.25 -202.46 178.25 -200.87 169.38 C-200.54 167.24 -200.54 167.24 -200.54 164.24 C-199.88 164.24 -199.22 164.24 -198.54 164.24 C-198.45 163.94 -198.45 163.94 -198.02 162.4 C-194.65 150.74 -190.25 138.7 -183.16 128.74 C-181.54 126.24 -181.54 126.24 -181.54 122.24 C-180.71 122.08 -180.71 122.08 -176.54 121.24 C-176.41 119.94 -176.29 118.64 -176.16 117.3 C-175.95 115.09 -175.95 115.09 -175.54 113.24 C-174.88 112.91 -174.22 112.58 -173.54 112.24 C-173.21 112.41 -173.21 112.41 -171.54 113.24 C-171.54 111.92 -171.54 110.6 -171.54 109.24 C-170.55 109.24 -169.56 109.24 -168.54 109.24 C-166.78 107.63 -166.78 107.63 -164.97 105.49 C-164.67 105.14 -164.67 105.14 -163.16 103.38 C-161.54 101.24 -161.54 101.24 -160.51 99.04 C-159.54 97.24 -159.54 97.24 -156.54 96.24 C-156.54 95.58 -156.54 94.92 -156.54 94.24 C-155.65 94 -154.77 93.75 -153.86 93.5 C-150.32 92.16 -148.19 90.58 -145.35 88.12 C-140.86 84.24 -140.86 84.24 -137.54 84.24 C-137.54 83.58 -137.54 82.92 -137.54 82.24 C-135.4 80.79 -135.4 80.79 -132.41 79.12 C-131.86 78.81 -131.86 78.81 -129.09 77.24 C-128.8 77.07 -128.8 77.07 -127.32 76.25 C-125.55 75.25 -123.8 74.24 -122.04 73.21 C-116.78 70.15 -111.51 67.17 -106.04 64.49 C-87.83 55.52 -70.8 45.35 -54.39 33.42 C-52.54 32.24 -52.54 32.24 -50.54 32.24 C-50.54 31.58 -50.54 30.92 -50.54 30.24 C-49 28.91 -49 28.91 -46.91 27.43 C-43.32 24.83 -39.91 22.11 -36.54 19.24 C-36.87 18.25 -37.2 17.26 -37.54 16.24 C-36.55 15.91 -35.56 15.58 -34.54 15.24 C-34.21 14.58 -33.88 13.92 -33.54 13.24 C-32.77 13.12 -32.01 12.99 -31.22 12.87 C-27.93 12.1 -26.8 10.67 -24.54 8.24 C-23.88 8.24 -23.22 8.24 -22.54 8.24 C-22.54 7.58 -22.54 6.92 -22.54 6.24 C-21.88 6.24 -21.22 6.24 -20.54 6.24 C-20.54 5.58 -20.54 4.92 -20.54 4.24 C-19.88 4.24 -19.22 4.24 -18.54 4.24 C-18.21 3.25 -17.88 2.26 -17.54 1.24 C-11.72 -0.12 -5.94 0.02 0 0 Z " fill="#276F67" transform="translate(354.535400390625,156.759765625)"/>
<path d="M0 0 C1.77 0 3.54 0 5.31 -0 C8.99 0 12.68 0.02 16.36 0.05 C21.05 0.09 25.75 0.1 30.44 0.09 C34.08 0.09 37.73 0.1 41.38 0.11 C43.11 0.12 44.84 0.12 46.56 0.12 C55.9 0.13 64.4 0.36 73.3 3.59 C73.3 4.25 73.3 4.91 73.3 5.59 C73.88 5.69 74.47 5.78 75.07 5.88 C77.8 6.75 79.06 7.98 81.05 10.03 C81.36 10.34 81.36 10.34 82.91 11.9 C84.3 13.59 84.3 13.59 84.3 15.59 C85.29 15.92 86.28 16.25 87.3 16.59 C93.5 26.93 93.87 37.2 94.02 48.86 C94.03 49.68 94.04 50.51 94.05 51.36 C94.11 55.73 94.16 60.09 94.19 64.46 C94.22 68.93 94.32 73.4 94.44 77.87 C94.52 81.35 94.55 84.82 94.56 88.29 C94.57 89.94 94.61 91.59 94.66 93.23 C94.93 101.57 94.75 107.77 89.06 114.25 C86.57 116.81 83.95 119.19 81.3 121.59 C81.01 121.98 81.01 121.98 79.54 123.95 C79.34 124.22 79.34 124.22 78.3 125.59 C77.64 125.59 76.98 125.59 76.3 125.59 C76.07 126.14 75.85 126.68 75.61 127.23 C73.89 130.34 71.69 132.72 69.3 135.34 C68.85 135.85 68.4 136.36 67.93 136.88 C66.77 138.16 65.54 139.38 64.3 140.59 C63.64 140.59 62.98 140.59 62.3 140.59 C62.03 141.19 61.76 141.79 61.49 142.41 C60.29 144.61 59.26 146.03 57.3 147.59 C56.31 147.59 55.32 147.59 54.3 147.59 C54.04 148.19 53.77 148.79 53.5 149.41 C52.26 151.66 51.13 152.86 49.18 154.5 C48.88 154.76 48.88 154.76 47.34 156.06 C47.03 156.33 47.03 156.33 45.43 157.66 C44.8 158.19 44.18 158.71 43.53 159.26 C34.83 166.59 34.83 166.59 32.3 166.59 C32.3 167.25 32.3 167.91 32.3 168.59 C30.46 170.07 30.46 170.07 27.93 171.78 C27.01 172.41 26.09 173.03 25.14 173.67 C24.2 174.31 23.27 174.94 22.3 175.59 C20.7 176.74 19.09 177.88 17.49 179.03 C12.65 182.42 7.67 185.51 2.62 188.57 C0.51 189.85 -1.58 191.17 -3.64 192.53 C-17.37 201.43 -32.56 208.13 -48.29 212.56 C-51.9 213.65 -55.25 215.07 -58.7 216.59 C-66.1 219.42 -73.75 221.59 -81.7 221.59 C-81.7 222.25 -81.7 222.91 -81.7 223.59 C-82.99 223.8 -84.27 224 -85.6 224.21 C-87.28 224.49 -88.96 224.76 -90.64 225.03 C-91.49 225.17 -92.34 225.3 -93.21 225.44 C-94.02 225.57 -94.83 225.7 -95.66 225.84 C-96.04 225.9 -96.04 225.9 -97.93 226.2 C-99.7 226.59 -99.7 226.59 -100.7 227.59 C-103.58 228.05 -106.45 228.44 -109.35 228.79 C-110.25 228.89 -111.16 229 -112.09 229.12 C-115.08 229.47 -118.08 229.82 -121.07 230.16 C-121.58 230.21 -121.58 230.21 -124.16 230.51 C-139.8 232.24 -155.28 233.06 -171.01 232.97 C-171.95 232.96 -172.9 232.96 -173.87 232.96 C-176.52 232.94 -179.16 232.91 -181.81 232.87 C-182.6 232.86 -183.39 232.85 -184.2 232.83 C-189.58 232.72 -189.58 232.72 -190.7 231.59 C-190.82 229.49 -190.87 227.37 -190.89 225.26 C-190.9 224.6 -190.91 223.94 -190.92 223.25 C-190.94 221.05 -190.96 218.85 -190.97 216.64 C-190.98 215.89 -190.98 215.13 -190.99 214.35 C-191.02 210.34 -191.03 206.33 -191.05 202.33 C-191.06 199.03 -191.09 195.73 -191.13 192.43 C-191.18 188.43 -191.21 184.44 -191.21 180.44 C-191.22 178.93 -191.23 177.41 -191.26 175.9 C-191.42 165.01 -190.39 154.19 -183.38 145.28 C-182.64 144.54 -181.9 143.79 -181.14 143.03 C-180.39 142.27 -179.65 141.5 -178.88 140.71 C-178.16 140.01 -177.44 139.31 -176.7 138.59 C-176.01 137.84 -175.32 137.09 -174.61 136.32 C-172.7 134.59 -172.7 134.59 -169.7 134.59 C-169.7 133.93 -169.7 133.27 -169.7 132.59 C-168.14 131.94 -166.58 131.3 -165.01 130.66 C-164.58 130.48 -164.58 130.48 -162.38 129.57 C-158.28 128.08 -154.46 127.47 -150.11 127.47 C-149.22 127.47 -148.33 127.47 -147.41 127.47 C-146.45 127.47 -145.49 127.48 -144.49 127.48 C-143.47 127.48 -142.44 127.48 -141.39 127.48 C-138.01 127.48 -134.62 127.49 -131.24 127.5 C-128.9 127.5 -126.55 127.5 -124.2 127.5 C-118.03 127.5 -111.86 127.51 -105.68 127.53 C-99.38 127.54 -93.08 127.54 -86.78 127.54 C-74.42 127.56 -62.06 127.57 -49.7 127.59 C-49.71 126.4 -49.72 125.21 -49.73 123.98 C-49.81 112.71 -49.87 101.44 -49.91 90.17 C-49.93 84.38 -49.96 78.58 -50 72.79 C-50.04 67.2 -50.07 61.6 -50.08 56 C-50.09 53.87 -50.1 51.74 -50.12 49.62 C-50.15 46.62 -50.16 43.63 -50.15 40.63 C-50.17 39.76 -50.18 38.89 -50.2 37.99 C-50.13 27.97 -46.13 20.1 -39.7 12.59 C-39.46 12.28 -39.46 12.28 -38.25 10.72 C-28.71 -0.43 -13.43 -0.14 0 0 Z " fill="#A6CEC5" transform="translate(190.69921875,-0.59375)"/>
<path d="M0 0 C5.67 -0.11 11.03 0.26 16.64 1.06 C17.44 1.17 18.24 1.28 19.06 1.39 C21.61 1.73 24.15 2.08 26.69 2.44 C29.21 2.79 31.73 3.13 34.26 3.48 C35.82 3.69 37.38 3.9 38.94 4.12 C50.24 5.66 61.52 6.16 72.92 6.2 C74.21 6.21 75.51 6.21 76.85 6.22 C79.58 6.23 82.31 6.24 85.04 6.24 C87.78 6.24 90.52 6.26 93.26 6.28 C113.43 6.45 133.09 5.33 153 2 C154.62 1.94 156.25 1.91 157.88 1.94 C158.27 1.94 158.27 1.94 160.24 1.96 C160.82 1.98 161.4 1.99 162 2 C161.81 5.99 161.03 8.25 158.38 11.12 C151.1 19.11 147.18 28.43 144.06 38.59 C143.24 41.23 142.35 43.76 141.31 46.31 C139.71 50.82 138.86 55.3 138 60 C137.65 61.65 137.29 63.29 136.94 64.94 C134.85 75.58 134.8 86.32 134.81 97.12 C134.81 97.49 134.81 97.49 134.81 99.35 C134.84 109.27 135 119.02 136.64 128.83 C137.06 131.39 137.44 133.96 137.81 136.54 C139.84 149.93 142.81 162.9 146.51 175.93 C147 178 147 178 147 181 C140.25 180.66 136.07 176.77 131.26 172.43 C130 171 130 171 130 169 C129.34 169 128.68 169 128 169 C127.19 167.57 126.4 166.13 125.62 164.69 C125.18 163.89 124.74 163.09 124.29 162.26 C120.03 151.49 120.74 139.93 120.8 128.55 C120.81 126.68 120.81 124.82 120.81 122.95 C120.82 118.07 120.84 113.19 120.86 108.31 C120.88 103.31 120.89 98.32 120.9 93.32 C120.92 83.55 120.96 73.77 121 64 C120.44 64.03 119.88 64.06 119.3 64.09 C102.72 64.93 86.16 65.19 69.57 65.19 C66.14 65.19 62.7 65.2 59.27 65.22 C55.94 65.23 52.61 65.23 49.28 65.23 C48.06 65.24 46.85 65.24 45.59 65.25 C31.52 65.21 19.39 61.11 8.98 51.29 C2.34 43.62 -0.17 36.1 -0.1 26.17 C-0.1 25.42 -0.09 24.67 -0.09 23.9 C-0.09 21.52 -0.08 19.13 -0.06 16.75 C-0.06 15.13 -0.05 13.51 -0.05 11.89 C-0.04 7.93 -0.02 3.96 0 0 Z " fill="#F4C4A1" transform="translate(0,237)"/>
<path d="M0 0 C2.14 3.22 2.23 3.47 1.71 7 C1.65 7.4 1.65 7.4 1.37 9.42 C1.31 9.85 1.31 9.85 1 12 C0.79 13.75 0.59 15.5 0.39 17.25 C-6.11 71.22 -6.11 71.22 -10.93 75.86 C-13 77 -13 77 -15.56 76.38 C-18 75 -18 75 -19.38 73.44 C-21.92 71.19 -24.71 71.31 -28 71 C-28 70.01 -28 69.02 -28 68 C-27.01 68 -26.02 68 -25 68 C-26.75 65.94 -26.75 65.94 -29 64 C-31.12 64.37 -31.12 64.37 -33 65 C-33.66 64.34 -34.32 63.68 -35 63 C-35.85 63.86 -36.69 64.71 -37.56 65.6 C-48.56 76.7 -48.56 76.7 -54.41 81.63 C-56 83 -56 83 -57.59 84.68 C-59 86 -59 86 -61 86 C-61 86.66 -61 87.32 -61 88 C-61.82 88.33 -61.82 88.33 -66 90 C-66 90.66 -66 91.32 -66 92 C-67.62 93.45 -67.62 93.45 -69.88 95.12 C-73.21 97.64 -76.47 100.21 -79.69 102.88 C-85.16 107.26 -91 110.99 -96.93 114.7 C-99.22 116.14 -101.49 117.58 -103.77 119.03 C-108.5 122.03 -113.25 125.02 -118 128 C-118.5 128.31 -118.5 128.31 -121.01 129.89 C-126.15 133.04 -131.43 135.8 -136.85 138.45 C-138.91 139.46 -140.96 140.51 -143 141.58 C-158.19 149.52 -174.38 156.28 -191.07 160.28 C-193.49 160.87 -195.69 161.57 -198 162.5 C-207.28 166.18 -217.33 168.15 -227.06 170.25 C-227.46 170.34 -227.46 170.34 -229.48 170.78 C-233.73 171.67 -237.63 172.2 -242 172 C-242 170.35 -242 168.7 -242 167 C-237.36 165.25 -232.72 163.51 -228.08 161.78 C-226.25 161.09 -224.42 160.4 -222.59 159.71 C-221.63 159.35 -220.68 158.99 -219.69 158.62 C-218.85 158.31 -218 157.99 -217.14 157.66 C-215 157 -215 157 -212 157 C-211.67 155.68 -211.34 154.36 -211 153 C-210.42 153.2 -209.84 153.4 -209.25 153.61 C-206.48 154.09 -205.49 153.58 -203.06 152.25 C-202.37 151.87 -201.68 151.5 -200.96 151.11 C-200.32 150.74 -199.67 150.38 -199 150 C-198.05 149.5 -197.1 149.01 -196.12 148.5 C-193.81 146.86 -193 145.63 -192 143 C-191.01 143.33 -190.02 143.66 -189 144 C-167.01 136.23 -144.76 117.82 -126.78 103.25 C-125 102 -125 102 -123 102 C-123 101.34 -123 100.68 -123 100 C-122.38 99.92 -121.76 99.83 -121.12 99.75 C-119 99 -119 99 -118.06 97.06 C-116.61 94.25 -114.87 94.11 -112 93 C-111.67 92.01 -111.34 91.02 -111 90 C-109.44 88.39 -109.44 88.39 -107.56 86.81 C-106.95 86.28 -106.33 85.75 -105.69 85.21 C-104 84 -104 84 -102 84 C-101.67 83.34 -101.67 83.34 -100 80 C-99.34 80 -98.68 80 -98 80 C-98 79.34 -98 78.68 -98 78 C-96.54 76.49 -96.54 76.49 -94.62 74.88 C-94 74.34 -93.37 73.8 -92.73 73.24 C-91 72 -91 72 -89 72 C-88.89 71.72 -88.89 71.72 -88.31 70.31 C-86.62 67.34 -84.53 65.28 -82 63 C-81.34 63 -80.68 63 -80 63 C-80 61.35 -80 59.7 -80 58 C-79.01 58 -78.02 58 -77 58 C-77 57.01 -77 56.02 -77 55 C-76.34 55 -75.68 55 -75 55 C-75 54.34 -75 53.68 -75 53 C-73.68 52.67 -72.36 52.34 -71 52 C-70.94 51.4 -70.88 50.8 -70.81 50.19 C-69.67 47.12 -67.79 46.62 -65 45 C-63.62 43.37 -62.29 41.7 -61 40 C-59.69 38.65 -58.36 37.31 -57 36 C-57.66 36 -58.32 36 -59 36 C-59 35.34 -59 34.68 -59 34 C-59.35 33.87 -59.35 33.87 -61.14 33.21 C-64.18 31.92 -66.88 30.42 -69.69 28.69 C-70.64 28.11 -71.59 27.54 -72.57 26.95 C-75.26 24.79 -76.04 23.26 -77 20 C-74.05 15.66 -72.04 14.28 -66.93 13.19 C-65.71 12.92 -64.5 12.65 -63.25 12.38 C-61.94 12.1 -60.62 11.83 -59.31 11.56 C-57.96 11.27 -56.62 10.97 -55.27 10.68 C-52.52 10.07 -49.77 9.47 -47.02 8.88 C-41.07 7.59 -35.16 6.14 -29.25 4.69 C-7.38 -0.66 -7.38 -0.66 0 0 Z M-32 59 C-32.33 59.5 -32.33 59.5 -34 62 C-33.01 62 -32.02 62 -31 62 C-31.33 61.01 -31.66 60.02 -32 59 Z " fill="#226760" transform="translate(386,52)"/>
<path d="M0 0 C0.73 -0 1.46 -0.01 2.21 -0.01 C7.62 -0 7.62 -0 9.88 1.12 C9.88 29.18 9.88 57.23 9.88 86.12 C9.22 86.12 8.56 86.12 7.88 86.12 C7.88 58.4 7.88 30.69 7.88 2.12 C4.74 2.29 4.74 2.29 -11.12 3.12 C-11.45 2.46 -11.78 1.81 -12.12 1.12 C-8.15 -0.18 -4.13 -0.02 0 0 Z " fill="#BF8F70" transform="translate(113.125,298.875)"/>
<path d="M0 0 C2 -0.01 3.99 -0.04 5.99 -0.07 C14 -0.1 21.96 0.14 29.46 3.24 C29.79 3.74 29.79 3.74 31.46 6.24 C27.71 7.37 27.71 7.37 25.46 6.24 C25.46 5.58 25.46 4.92 25.46 4.24 C18.65 2.95 11.94 3.06 5.03 3.05 C3.73 3.04 2.43 3.03 1.1 3.02 C-0.16 3.01 -1.42 3.01 -2.72 3.01 C-3.86 3.01 -5 3 -6.17 3 C-11.7 3.4 -15.45 4 -19.16 8.24 C-19.94 9.23 -20.73 10.22 -21.54 11.24 C-24.35 12.62 -24.35 12.62 -26.54 13.24 C-26.54 13.9 -26.54 14.56 -26.54 15.24 C-27.53 15.57 -28.52 15.9 -29.54 16.24 C-30.15 17.02 -30.77 17.81 -31.41 18.62 C-33.62 21.34 -35.36 22.78 -38.54 24.24 C-39.53 23.91 -40.52 23.58 -41.54 23.24 C-40.71 22.48 -39.89 21.71 -39.04 20.93 C-36.54 18.24 -36.54 18.24 -36.54 15.24 C-35.88 15.24 -35.22 15.24 -34.54 15.24 C-34.21 14.58 -33.88 13.92 -33.54 13.24 C-32.77 13.12 -32.01 12.99 -31.22 12.87 C-27.93 12.1 -26.8 10.67 -24.54 8.24 C-23.88 8.24 -23.22 8.24 -22.54 8.24 C-22.54 7.58 -22.54 6.92 -22.54 6.24 C-21.88 6.24 -21.22 6.24 -20.54 6.24 C-20.54 5.58 -20.54 4.92 -20.54 4.24 C-19.88 4.24 -19.22 4.24 -18.54 4.24 C-18.21 3.25 -17.88 2.26 -17.54 1.24 C-11.72 -0.12 -5.94 0.02 0 0 Z " fill="#174B43" transform="translate(354.535400390625,156.759765625)"/>
<path d="M0 0 C-2.28 2.28 -4.35 3.27 -7.25 4.69 C-10.53 6.29 -13.8 7.89 -17.03 9.6 C-24.74 13.63 -32.64 17.03 -40.69 20.31 C-41.73 20.75 -42.78 21.18 -43.85 21.62 C-50.51 24.29 -56.9 26.02 -64 27 C-63.67 26.5 -63.67 26.5 -62 24 C-58.88 23.81 -58.88 23.81 -56 24 C-56 23.01 -56 22.02 -56 21 C-54.59 20.49 -53.17 19.99 -51.75 19.5 C-50.96 19.22 -50.17 18.94 -49.36 18.66 C-47 18 -47 18 -43 18 C-43 17.34 -43 16.68 -43 16 C-41.35 16.33 -39.7 16.66 -38 17 C-37.67 16.01 -37.34 15.02 -37 14 C-32.73 11.54 -28.78 11.84 -24 12 C-23.67 11.01 -23.34 10.02 -23 9 C-21.02 8.67 -19.04 8.34 -17 8 C-17 7.34 -17 6.68 -17 6 C-16.34 6 -15.68 6 -15 6 C-15 5.34 -15 4.68 -15 4 C-9.61 0.41 -6.46 -0.45 0 0 Z " fill="#0D483C" transform="translate(260,184)"/>
<path d="M0 0 C-3.36 3.36 -7.84 4.86 -12.12 6.81 C-13.11 7.26 -14.1 7.71 -15.11 8.17 C-23.26 11.81 -31.41 14.61 -40 17 C-40.99 17.33 -41.98 17.66 -43 18 C-43 17.01 -43 16.02 -43 15 C-36.36 11.48 -30.49 10.28 -23 10 C-23 9.34 -23 8.68 -23 8 C-22.34 8 -21.68 8 -21 8 C-21 7.34 -21 6.68 -21 6 C-19.19 5.67 -19.19 5.67 -10 4 C-10 3.01 -10 2.02 -10 1 C-6.53 -0.16 -3.64 -0.07 0 0 Z " fill="#75AA99" transform="translate(179,196)"/>
<path d="M0 0 C0.66 0 1.32 0 2 0 C1.93 0.93 1.86 1.87 1.78 2.83 C1.03 13.57 0.88 24.24 0.94 35 C0.94 36.66 0.95 38.32 0.95 39.98 C0.96 43.99 0.98 47.99 1 52 C0.34 52 -0.32 52 -1 52 C-1.36 49 -1.68 46 -2 43 C-2.11 42.07 -2.21 41.14 -2.32 40.18 C-2.99 33.45 -3.01 26.87 -2.69 20.12 C-2.65 19.33 -2.62 18.53 -2.58 17.71 C-2.3 12.86 -1.51 8.62 0 4 C-0.66 3.67 -1.32 3.34 -2 3 C-1.34 3 -0.68 3 0 3 C0 2.01 0 1.02 0 0 Z " fill="#D3A684" transform="translate(134,302)"/>
<path d="M0 0 C2 -0.01 3.99 -0.04 5.99 -0.07 C14 -0.1 21.96 0.14 29.46 3.24 C30.12 4.23 30.78 5.22 31.46 6.24 C27.71 7.37 27.71 7.37 25.46 6.24 C25.46 5.58 25.46 4.92 25.46 4.24 C20.54 3.28 15.78 3.03 10.78 2.92 C9.97 2.9 9.16 2.88 8.32 2.86 C5.74 2.8 3.17 2.74 0.59 2.68 C-1.17 2.63 -2.92 2.59 -4.68 2.55 C-8.96 2.44 -13.25 2.34 -17.54 2.24 C-17.54 1.91 -17.54 1.58 -17.54 1.24 C-11.72 -0.12 -5.94 0.02 0 0 Z " fill="#09372E" transform="translate(354.535400390625,156.759765625)"/>
<path d="M0 0 C0.99 0 1.98 0 3 0 C2.71 0.87 2.42 1.74 2.12 2.63 C1.42 4.73 0.73 6.83 0.04 8.93 C-1.45 13.43 -2.94 17.91 -4.69 22.31 C-6 26.01 -6.6 29.12 -7 33 C-7.66 33 -8.32 33 -9 33 C-7.97 18.55 -7.97 18.55 -6 13 C-5.34 12.67 -4.68 12.34 -4 12 C-3.22 10.01 -2.52 7.98 -1.88 5.94 C-1.7 5.39 -1.7 5.39 -0.8 2.59 C-0.54 1.74 -0.27 0.88 0 0 Z " fill="#B48D6C" transform="translate(146,261)"/>
<path d="M0 0 C0 0.66 0 1.32 0 2 C1.32 2 2.64 2 4 2 C4.66 4.64 5.32 7.28 6 10 C5.26 9.32 4.51 8.64 3.75 7.94 C1 6 1 6 -1.19 6.38 C-1.49 6.48 -1.49 6.48 -3 7 C-3.66 6.34 -4.32 5.68 -5 5 C-7.97 7.97 -10.94 10.94 -14 14 C-14 10.07 -12.61 8.84 -10 6 C-9.34 6 -8.68 6 -8 6 C-8 5.01 -8 4.02 -8 3 C-5.11 0.89 -3.62 0 0 0 Z M-2 1 C-2.33 1.5 -2.33 1.5 -4 4 C-3.01 4 -2.02 4 -1 4 C-1.33 3.01 -1.66 2.02 -2 1 Z " fill="#0B4034" transform="translate(356,110)"/>
<path d="M0 0 C0 0.66 0 1.32 0 2 C-1.32 2.33 -2.64 2.66 -4 3 C-4 3.66 -4 4.32 -4 5 C-3.01 4.67 -2.02 4.34 -1 4 C0.89 3.93 2.79 3.92 4.69 3.94 C5.68 3.95 6.68 3.96 7.7 3.96 C8.08 3.97 8.08 3.97 10 4 C10 4.33 10 4.66 10 5 C7.79 5.51 5.58 6.01 3.38 6.5 C2.76 6.64 2.76 6.64 -0.35 7.34 C-3.67 7.94 -6.64 8.12 -10 8 C-10 6.35 -10 4.7 -10 3 C-8.71 2.5 -7.42 2 -6.12 1.5 C-5.77 1.36 -5.77 1.36 -3.95 0.66 C-2 0 -2 0 0 0 Z " fill="#0D4C42" transform="translate(154,216)"/>
<path d="M0 0 C2.6 -0.29 2.6 -0.29 5.62 -0.19 C6.13 -0.17 6.13 -0.17 8.66 -0.11 C9.43 -0.07 10.21 -0.04 11 0 C11 0.99 11 1.98 11 3 C7.37 4.98 3.74 6.96 0 9 C0 7.35 0 5.7 0 4 C-0.66 3.67 -1.32 3.34 -2 3 C-1.34 2.01 -0.68 1.02 0 0 Z " fill="#16574F" transform="translate(278,164)"/></g>
<g transform="translate(444 0) scale(0.5)"><path d="M0 0 C1.51 -0.01 3.03 -0.01 4.59 -0.02 C5.42 -0.02 5.42 -0.02 9.64 -0 C11.39 -0.01 13.14 -0.01 14.95 -0.02 C19.76 -0.02 24.58 -0.02 29.4 -0.01 C34.45 -0.01 39.51 -0.01 44.56 -0.02 C53.07 -0.02 61.58 -0.02 70.09 -0.01 C79.88 0 89.67 0 99.46 -0.01 C107.89 -0.02 116.32 -0.02 124.75 -0.02 C129.77 -0.01 134.79 -0.01 139.81 -0.02 C198.31 -0.07 257.16 8.2 304.83 45.25 C305.32 45.61 305.32 45.61 307.79 47.41 C322.47 58.27 334.95 70.63 345.83 85.25 C347.14 86.8 348.45 88.34 349.77 89.88 C364.8 108.69 374.45 131.57 381.83 154.25 C382.23 155.46 382.63 156.67 383.05 157.91 C398.15 204.87 396.25 259.99 379.83 306.25 C379.38 307.56 378.93 308.86 378.47 310.21 C369 336.65 354.1 360.57 334.9 381.03 C333.27 382.79 331.72 384.63 330.21 386.5 C327.06 390.15 323.5 393.13 319.83 396.25 C318.47 397.51 317.11 398.77 315.71 400.07 C305.11 409.45 293.25 416.56 280.83 423.25 C279.6 423.94 278.36 424.64 277.08 425.35 C231.5 450.46 182.94 453.58 132.08 453.52 C128.16 453.52 124.24 453.52 120.32 453.53 C112.15 453.53 103.98 453.52 95.81 453.51 C86.37 453.5 76.94 453.51 67.5 453.52 C58.38 453.53 49.26 453.53 40.14 453.52 C36.28 453.52 32.41 453.52 28.54 453.53 C23.16 453.53 17.78 453.52 12.4 453.51 C10.8 453.52 9.2 453.52 7.56 453.53 C6.09 453.52 4.63 453.51 3.12 453.51 C1.85 453.51 0.58 453.51 -0.73 453.51 C-4.2 453.25 -6.9 452.41 -10.17 451.25 C-10.24 394.09 -10.29 336.92 -10.32 279.76 C-10.32 273.01 -10.33 266.27 -10.33 259.53 C-10.33 258.19 -10.33 256.85 -10.33 255.46 C-10.35 233.7 -10.37 211.94 -10.4 190.18 C-10.43 167.86 -10.44 145.55 -10.45 123.24 C-10.45 109.46 -10.47 95.68 -10.49 81.9 C-10.51 72.46 -10.51 63.03 -10.51 53.59 C-10.51 48.14 -10.51 42.69 -10.52 37.23 C-10.54 31.34 -10.54 25.44 -10.53 19.54 C-10.53 18.67 -10.53 18.67 -10.55 14.26 C-10.55 12.7 -10.54 11.13 -10.54 9.51 C-10.54 8.83 -10.54 8.83 -10.54 5.38 C-10.42 4.35 -10.29 3.32 -10.17 2.25 C-6.42 -0.24 -4.48 0 0 0 Z M114.83 95.63 C113.51 95.65 112.18 95.67 110.81 95.69 C107.03 95.76 103.24 95.83 99.46 95.9 C98.88 95.91 98.88 95.91 95.95 95.96 C87.95 96.14 87.95 96.14 86.83 97.25 C86.73 100.55 86.7 103.85 86.69 107.16 C86.69 108.21 86.69 109.26 86.68 110.35 C86.67 113.9 86.67 117.46 86.67 121.02 C86.67 123.56 86.66 126.1 86.66 128.64 C86.64 135.55 86.64 142.47 86.63 149.39 C86.63 153.7 86.63 158.02 86.62 162.33 C86.61 175.82 86.6 189.3 86.59 202.79 C86.59 218.39 86.57 233.99 86.54 249.59 C86.52 261.62 86.51 273.66 86.51 285.7 C86.51 292.89 86.5 300.09 86.49 307.29 C86.47 314.06 86.47 320.83 86.48 327.59 C86.48 330.09 86.47 332.58 86.46 335.07 C86.45 338.45 86.46 341.84 86.47 345.23 C86.46 347.12 86.46 349.02 86.46 350.98 C86.58 352.39 86.71 353.8 86.83 355.25 C90.67 357.81 92.85 357.51 97.44 357.53 C99.03 357.54 100.62 357.55 102.26 357.56 C103.99 357.56 105.73 357.56 107.51 357.55 C109.29 357.56 111.08 357.56 112.92 357.57 C116.72 357.57 120.52 357.57 124.31 357.57 C130.06 357.57 135.8 357.59 141.54 357.62 C185.28 357.69 223.05 352.45 255.83 321.3 C281.86 294.96 291.07 261.01 291.01 224.78 C290.78 188.44 279.99 157.13 254.58 130.57 C248.51 124.69 241.88 119.88 234.83 115.25 C233.8 114.55 232.77 113.85 231.71 113.13 C197.19 91.43 153.76 94.99 114.83 95.63 Z " fill="#18262B" transform="translate(85.16683959960938,186.74603271484375)"/>
<path d="M0 0 C1.59 0.01 3.19 0.01 4.83 0.02 C37.47 0.35 70.75 7.72 99.56 23.31 C100.25 23.68 100.25 23.68 103.73 25.54 C125.56 37.5 147.04 54.18 160.56 75.31 C161.7 76.88 162.83 78.45 164 80.06 C166.56 84.31 166.56 84.31 166.56 90.31 C163.56 93.31 163.56 93.31 159.56 96.31 C158.35 97.26 157.13 98.21 155.88 99.19 C151.6 102.28 147.25 105.2 142.84 108.11 C138.11 111.29 133.49 114.61 128.87 117.94 C125.32 120.48 121.75 122.98 118.17 125.48 C116.21 126.85 114.27 128.25 112.33 129.65 C106.3 134 100.24 138.3 94.06 142.44 C92.96 143.18 91.86 143.93 90.72 144.7 C87.56 146.31 87.56 146.31 81.56 146.31 C79.31 143.13 79.31 143.13 76.56 138.31 C73.33 133.9 69.95 129.61 66.56 125.31 C65.65 124.07 64.75 122.84 63.81 121.56 C47.83 105.58 24.06 98.2 1.94 98.12 C-16.44 98.23 -32.2 102.21 -47.25 113.06 C-54.75 120.71 -58.72 129.08 -58.75 139.69 C-58.58 149.71 -55.63 156.39 -49.44 164.31 C-36.84 175.74 -21.18 180.69 -5.44 186.31 C-4.11 186.79 -2.79 187.27 -1.43 187.76 C6.11 190.48 13.69 193.03 21.3 195.55 C108.1 224.23 108.1 224.23 132.56 244.31 C133.6 245.14 134.65 245.97 135.72 246.83 C146.94 256.01 156.2 265.81 163.56 278.31 C164.55 279.82 165.54 281.32 166.56 282.88 C183.52 311.8 184.3 349.41 176.88 381.44 C167.05 417.21 146.41 448.1 113.78 466.92 C110.91 468.46 108.03 469.96 105.12 471.44 C104.17 471.94 103.21 472.44 102.22 472.95 C90.82 478.83 79.99 483.31 67.56 486.5 C66.27 486.84 64.98 487.18 63.66 487.54 C43.49 492.81 23.62 494.69 2.81 494.62 C0.96 494.62 -0.89 494.62 -2.79 494.61 C-15.62 494.51 -27.83 493.77 -40.44 491.31 C-42.14 491.01 -43.84 490.71 -45.59 490.4 C-78.29 484.31 -110.71 471.89 -136.44 450.31 C-137.67 449.28 -138.91 448.25 -140.19 447.19 C-149.33 438.85 -158.06 430.27 -165.44 420.31 C-166 419.56 -166 419.56 -168.88 415.75 C-181.44 397.49 -181.44 397.49 -181.44 388.31 C-179.33 386.27 -179.33 386.27 -176.44 384.31 C-175.44 383.6 -174.45 382.89 -173.42 382.16 C-172.35 381.43 -171.29 380.69 -170.19 379.94 C-169.04 379.15 -167.9 378.36 -166.71 377.55 C-162.64 374.77 -158.54 372.05 -154.44 369.31 C-151.99 367.6 -149.55 365.88 -147.11 364.16 C-143.23 361.47 -139.29 358.88 -135.36 356.27 C-132.79 354.55 -130.27 352.78 -127.75 351 C-121.75 346.77 -115.56 342.83 -109.39 338.86 C-106.96 337.3 -104.57 335.68 -102.23 333.98 C-99.44 332.31 -99.44 332.31 -94.44 332.31 C-91.44 335.31 -91.44 335.31 -89 340 C-75.33 365.53 -54.51 380.12 -27.44 389.31 C-22.8 390.59 -18.2 391.6 -13.44 392.31 C-12.84 392.4 -12.84 392.4 -9.8 392.86 C14.1 395.33 38.34 393.25 58.56 379.31 C67.61 370.41 70.86 363.46 71.25 350.94 C70.95 339.26 68.35 332.74 60.88 324 C46.15 311.41 28.25 306.4 10.06 300.56 C8.15 299.95 6.25 299.33 4.34 298.71 C-4.2 295.95 -12.74 293.21 -21.29 290.5 C-126.56 257.01 -126.56 257.01 -151.44 209.31 C-168 175.02 -170.92 134.27 -158.5 98.06 C-157.5 95.47 -156.48 92.89 -155.44 90.31 C-155 89.18 -154.57 88.05 -154.12 86.89 C-146.79 68.39 -132.68 51.94 -117.44 39.31 C-116.97 38.92 -116.97 38.92 -114.61 36.95 C-90.33 17.38 -60.92 7.2 -30.44 2.31 C-28.5 1.96 -26.56 1.61 -24.56 1.25 C-16.38 0.01 -8.26 -0.03 0 0 Z " fill="#277068" transform="translate(1653.4375,167.6875)"/>
<path d="M0 0 C6.31 5.29 12.51 10.85 18 17 C18 17.66 18 18.32 18 19 C18.49 18.83 18.49 18.83 21 18 C20.99 17.24 20.99 17.24 20.94 13.38 C20.95 7.06 21.11 0.75 21.31 -5.56 C21.37 -7.46 21.43 -9.36 21.49 -11.32 C22 -16 22 -16 25 -19 C28.76 -19.37 28.76 -19.37 33.55 -19.36 C34.45 -19.36 34.45 -19.36 38.98 -19.37 C40.93 -19.35 42.87 -19.34 44.88 -19.33 C46.88 -19.33 48.89 -19.32 50.89 -19.32 C55.1 -19.32 59.31 -19.3 63.51 -19.28 C68.91 -19.25 74.31 -19.24 79.71 -19.24 C83.85 -19.23 87.99 -19.22 92.14 -19.21 C95.1 -19.2 98.06 -19.2 101.02 -19.19 C102.81 -19.18 104.6 -19.17 106.45 -19.16 C107.24 -19.16 107.24 -19.16 111.24 -19.14 C115 -19 115 -19 118 -18 C120.1 -13.8 119.14 -8.13 119.13 -3.47 C119.14 -2.15 119.14 -0.83 119.14 0.54 C119.15 5 119.15 9.47 119.15 13.94 C119.15 17.13 119.15 20.32 119.16 23.5 C119.16 32.19 119.17 40.88 119.17 49.56 C119.17 56.8 119.17 64.04 119.18 71.27 C119.18 88.34 119.19 105.4 119.19 122.47 C119.18 140.11 119.2 157.74 119.21 175.38 C119.22 190.5 119.23 205.61 119.23 220.73 C119.23 229.77 119.23 238.81 119.24 247.85 C119.25 256.34 119.25 264.84 119.24 273.34 C119.24 276.46 119.25 279.59 119.25 282.72 C119.26 286.97 119.25 291.22 119.25 295.47 C119.25 296.73 119.26 297.98 119.26 299.27 C119.23 307.77 119.23 307.77 117 310 C112.18 310.61 107.29 310.57 102.44 310.69 C101.67 310.71 101.67 310.71 97.78 310.81 C81.98 311.12 66.18 310.93 50.38 310.69 C49.08 310.67 47.79 310.65 46.46 310.64 C42.77 310.58 39.09 310.52 35.4 310.45 C34.28 310.43 33.15 310.42 32 310.4 C24.23 310.23 24.23 310.23 22 308 C21.76 305.46 21.64 302.91 21.59 300.37 C21.55 298.84 21.51 297.31 21.47 295.74 C21.45 294.94 21.45 294.94 21.38 290.88 C21.34 289.26 21.3 287.65 21.26 285.99 C21.16 281.99 21.08 278 21 274 C20.01 274 19.02 274 18 274 C17.18 275.11 16.35 276.23 15.5 277.38 C-2.35 300.96 -30.43 312.54 -58.73 317.57 C-85.14 321.05 -113.39 318.2 -138 308 C-139.46 307.4 -140.92 306.81 -142.42 306.19 C-159.23 298.93 -173.32 289.12 -187 277 C-187.86 276.24 -188.71 275.48 -189.59 274.7 C-219.83 246.23 -236.67 202.09 -238.14 161.12 C-238.5 146.01 -238.55 130.93 -236 116 C-235.77 114.43 -235.53 112.85 -235.29 111.23 C-230.74 83.69 -220.17 57.1 -203 35 C-202.39 34.17 -201.78 33.34 -201.16 32.48 C-192.75 21.35 -182.32 11.1 -171 3 C-170.2 2.42 -170.2 2.42 -166.18 -0.53 C-161.11 -4.05 -155.77 -6.88 -150.19 -9.5 C-149.19 -9.97 -148.19 -10.44 -147.16 -10.92 C-99.98 -32.64 -42.14 -33.48 0 0 Z M-120 90 C-127.24 98.93 -132.64 108.02 -136 119 C-136.39 120.1 -136.78 121.2 -137.18 122.33 C-144.06 143.86 -140.13 166.3 -130.86 186.39 C-120.94 205.6 -105.16 217.77 -85 225 C-76.29 227.59 -68.56 228.47 -59.5 228.38 C-58.37 228.39 -57.23 228.4 -56.07 228.41 C-34.56 228.34 -14.69 219.01 0.77 204.29 C16.44 188.26 22.6 168.9 22.5 146.81 C22.49 145.35 22.49 143.89 22.48 142.38 C22.12 121.37 15.25 102.81 0 88 C-0.76 87.23 -1.52 86.46 -2.3 85.67 C-17.75 70.81 -36.91 64.62 -58 64.75 C-59.22 64.74 -60.44 64.73 -61.7 64.73 C-84.05 64.77 -104.33 74.18 -120 90 Z " fill="#277068" transform="translate(2407,344)"/>
<path d="M0 0 C1.3 -0 2.6 -0.01 3.95 -0.01 C52.8 0.04 97.2 17.75 132.31 51.75 C154.27 73.95 166.89 102.66 172.38 133.12 C172.56 134.09 172.74 135.05 172.93 136.04 C174.75 146.67 174.71 157.34 174.69 168.08 C174.69 171.32 174.71 174.55 174.74 177.78 C174.74 179.87 174.74 181.96 174.74 184.04 C174.74 184.98 174.74 184.98 174.75 189.69 C174.26 196.86 173.64 203.86 168.38 209.12 C164.07 209.51 164.07 209.51 158.45 209.52 C157.42 209.53 156.38 209.54 155.32 209.54 C151.85 209.56 148.37 209.56 144.9 209.56 C142.42 209.57 139.94 209.58 137.45 209.59 C130.7 209.62 123.94 209.63 117.18 209.63 C110.13 209.64 103.08 209.67 96.02 209.69 C82.65 209.73 69.29 209.76 55.92 209.79 C40.71 209.81 25.49 209.86 10.28 209.9 C-21.02 210 -52.32 210.07 -83.62 210.12 C-85.45 217.41 -80.2 223.88 -76.62 230.12 C-63.42 250.7 -42.88 260.64 -19.56 265.8 C9.33 270.98 40.54 267.01 65.38 251.12 C70.17 247.77 74.3 244.31 78.38 240.12 C80.94 237.75 80.94 237.75 83.38 236.12 C87.86 237.25 89.89 238.84 93.5 241.69 C94.65 242.6 95.81 243.5 97 244.44 C98.11 245.32 99.23 246.21 100.38 247.12 C101.26 247.83 102.15 248.53 103.06 249.25 C110.13 254.87 117.1 260.59 124.06 266.34 C130.07 271.3 136.2 276.08 142.43 280.77 C148.18 285.37 148.18 285.37 150.38 288.12 C150.66 290.98 150.66 290.98 149.38 294.12 C146.09 297.71 146.09 297.71 141.88 301.5 C140.41 302.82 138.95 304.14 137.44 305.5 C136.1 306.7 134.76 307.89 133.38 309.12 C132.96 309.52 132.96 309.52 130.88 311.53 C95.39 345.42 39.89 350.85 -6.62 350.12 C-19.85 349.82 -32.62 348.52 -45.62 346.12 C-46.82 345.91 -48.02 345.69 -49.26 345.47 C-59.29 343.51 -68.95 340.41 -78.62 337.12 C-79.89 336.7 -81.16 336.27 -82.47 335.82 C-114.53 324.01 -144.18 299.39 -161.62 270.12 C-162.27 269.06 -162.92 267.99 -163.59 266.88 C-179.86 239.34 -186.8 210.38 -186.81 178.56 C-186.82 177.74 -186.82 177.74 -186.85 173.6 C-186.88 146.38 -181.53 120.63 -169.62 96.12 C-168.98 94.78 -168.33 93.44 -167.66 92.05 C-147.22 51.93 -111.94 24.84 -70.06 9.94 C-58.81 6.3 -47.23 4.26 -35.62 2.12 C-33.97 1.8 -32.32 1.46 -30.62 1.12 C-20.43 0.14 -10.24 -0.03 0 0 Z M-69.81 107.44 C-77.35 116.29 -84.6 128.25 -85.62 140.12 C-82.85 142.9 -81.21 142.38 -77.32 142.38 C-75.98 142.38 -74.63 142.39 -73.24 142.4 C-71.76 142.39 -70.27 142.39 -68.74 142.38 C-67.18 142.39 -65.63 142.39 -64.02 142.39 C-58.85 142.4 -53.67 142.4 -48.5 142.39 C-44.92 142.39 -41.34 142.39 -37.76 142.4 C-30.25 142.4 -22.74 142.4 -15.22 142.39 C-5.57 142.37 4.08 142.38 13.73 142.39 C21.12 142.4 28.52 142.4 35.91 142.39 C39.47 142.39 43.03 142.39 46.59 142.4 C51.56 142.4 56.53 142.39 61.49 142.38 C62.98 142.39 64.46 142.39 65.99 142.4 C67.34 142.39 68.69 142.38 70.07 142.38 C71.25 142.38 72.42 142.38 73.64 142.38 C76.38 142.12 76.38 142.12 78.38 140.12 C77.12 124.6 68.66 111.47 57.38 101.12 C40.05 86.55 19.85 81.96 -2.19 81.88 C-2.88 81.86 -2.88 81.86 -6.36 81.81 C-30.34 81.72 -53.2 89.57 -69.81 107.44 Z " fill="#277068" transform="translate(2875.625,315.875)"/>
<path d="M0 0 C0.56 0.42 0.56 0.42 3.38 2.54 C18.27 13.96 30.37 26.86 40 43 C40.64 44.04 41.27 45.07 41.93 46.14 C61.93 79.64 69.98 121.73 61 160 C60.62 161.73 60.25 163.46 59.86 165.24 C53.37 194.11 40.16 220.99 19 242 C18.38 242.64 18.38 242.64 15.25 245.88 C-18.18 278.02 -62.33 290.74 -107.9 290.22 C-154.09 289.04 -195.34 268.02 -226.81 235 C-254.75 199.94 -268.79 157.54 -264.7 112.66 C-261.71 86.61 -254.2 61.65 -239 40 C-238.7 39.56 -238.7 39.56 -237.18 37.32 C-232.04 29.98 -226.19 23.46 -220 17 C-219.02 15.96 -218.03 14.92 -217.02 13.86 C-201.98 -1.63 -183.88 -11.83 -164 -20 C-162.87 -20.51 -161.75 -21.01 -160.59 -21.54 C-109.62 -42.33 -43.83 -33.02 0 0 Z M-151 74 C-159.24 82.28 -164.96 91.04 -169 102 C-169.33 102.82 -169.33 102.82 -171 107 C-175.88 126.86 -174.87 148.39 -164.69 166.56 C-152.97 184.72 -137.91 196.25 -117 202 C-96.87 206.03 -78.44 202.23 -61 192 C-44.07 180.62 -34.01 163.83 -29.19 144.25 C-25.41 124.79 -28.9 106.43 -38 89 C-48.96 72.76 -63.93 60.97 -83 56 C-107.69 51.65 -132.3 56.5 -151 74 Z " fill="#18262B" transform="translate(753,355)"/>
<path d="M0 0 C0.56 0.19 0.56 0.19 3.38 1.14 C24.83 8.75 42.76 21.33 59 37 C59.66 37.6 59.66 37.6 63 40.62 C66.96 44.95 70.55 49.44 74.06 54.12 C75.21 55.65 76.35 57.18 77.54 58.76 C80 63 80 63 80.25 66.29 C78.53 70.02 76.52 71.12 73 73.19 C71.74 73.95 70.47 74.72 69.17 75.5 C67.79 76.33 66.42 77.15 65 78 C62.1 79.86 59.2 81.74 56.31 83.62 C45.96 90.32 35.56 96.92 25.09 103.42 C22.38 105.13 19.7 106.87 17.04 108.64 C15.81 109.46 14.58 110.28 13.31 111.12 C12.22 111.87 11.12 112.62 9.99 113.38 C7 115 7 115 2 115 C-0.11 112.91 -0.11 112.91 -2.19 110.06 C-15.44 93.06 -32.07 85.19 -53 81 C-78.65 79.5 -98.15 86.66 -117.25 103.31 C-131.88 117.01 -139.21 137.99 -140.19 157.78 C-140.54 180.64 -133.9 201.32 -119 219 C-103.49 233.94 -83.02 241.24 -61.81 242.19 C-39.29 241.31 -20.54 233.67 -5 217 C-3.83 215.34 -2.66 213.67 -1.5 212 C2 208 2 208 5.31 207.5 C9.38 209.15 12.6 211.5 16.16 214.03 C20.95 217.35 25.92 220.38 30.88 223.44 C39.01 228.49 47.07 233.62 55 239 C57.54 240.69 60.08 242.38 62.62 244.06 C63.88 244.91 65.13 245.75 66.41 246.62 C68.65 248.1 70.91 249.55 73.21 250.95 C76 252.69 76 252.69 80 256 C80.1 260.41 79.38 262.5 76.71 266.03 C75.75 266.99 74.8 267.95 73.81 268.94 C70.62 272.24 67.74 275.35 65 279.06 C58.8 287.2 51.42 294.18 43 300 C41.92 300.76 40.84 301.52 39.73 302.3 C8.56 323.79 -26.86 333.44 -64.5 333.25 C-65.29 333.25 -65.29 333.25 -69.26 333.27 C-116.25 333.2 -160.28 313.72 -193.34 280.66 C-201 272.72 -207.21 264.38 -213 255 C-213.62 254.03 -214.25 253.06 -214.89 252.05 C-220.36 243.2 -224.22 233.67 -228 224 C-228.55 222.6 -229.1 221.2 -229.66 219.76 C-241.6 186.86 -242.15 150.69 -233 117 C-232.74 116.02 -232.47 115.05 -232.2 114.04 C-218.75 67.13 -189.25 33.07 -147.53 9 C-135.31 2.43 -122.26 -1.2 -109 -5 C-108.38 -5.19 -108.38 -5.19 -105.27 -6.12 C-71.73 -15.1 -32.37 -11.84 0 0 Z " fill="#277068" transform="translate(2085,329)"/>
<path d="M0 0 C10.74 10.04 22.07 20.84 29 34 C27.5 39.98 22.84 41.76 17.88 44.88 C17.36 45.2 17.36 45.2 14.77 46.86 C5.7 52.64 -3.49 58.24 -12.7 63.78 C-19.62 67.96 -26.41 72.31 -33.18 76.72 C-34.4 77.49 -35.62 78.27 -36.88 79.06 C-38.11 79.86 -39.34 80.65 -40.62 81.47 C-41.73 81.98 -42.85 82.48 -44 83 C-48.99 81 -49.89 80.36 -52.88 76.31 C-63.76 62.23 -76.87 55.28 -94 51 C-118.41 50 -137.41 52.29 -156.56 68.75 C-171.03 82.12 -177.97 100.8 -179.29 120.2 C-179.73 141.57 -173.67 162.81 -158.88 178.69 C-143.68 193.04 -123.95 199.04 -103.36 198.99 C-86.42 198.07 -70.17 191.88 -58 180 C-54.88 176.49 -51.81 172.96 -48.82 169.33 C-47.89 168.56 -46.96 167.79 -46 167 C-41.71 167.98 -38.41 169.82 -34.8 172.27 C-33.83 172.93 -32.85 173.58 -31.85 174.26 C-30.83 174.95 -29.81 175.65 -28.75 176.38 C-27.68 177.09 -26.62 177.81 -25.52 178.55 C-23.36 180.01 -21.2 181.47 -19.04 182.94 C-9.25 189.58 0.57 196.15 10.62 202.38 C22.47 209.77 22.47 209.77 26 213 C24.65 219.74 21.15 223.64 17 229 C16.3 229.92 15.61 230.83 14.89 231.77 C-9.07 262.3 -44.56 277.76 -82 284 C-128.49 289.09 -174.8 280.16 -212.31 251 C-233.69 233.2 -248.08 212.98 -260 188 C-260.85 186.25 -261.69 184.49 -262.56 182.69 C-265.11 176.43 -266.66 169.93 -268.25 163.38 C-268.51 162.31 -268.77 161.25 -269.03 160.16 C-279.18 116.69 -268.53 70.61 -245.5 33.12 C-241.74 27.41 -237.45 22.18 -233 17 C-232.28 16.14 -231.56 15.29 -230.81 14.4 C-225.41 8.16 -219.57 2.98 -213 -2 C-211.77 -2.95 -210.53 -3.9 -209.26 -4.88 C-150.06 -48.69 -56.79 -48.75 0 0 Z " fill="#18262B" transform="translate(1101,360)"/>
<path d="M0 0 C1.38 1.2 2.76 2.39 4.19 3.62 C5.13 4.41 6.07 5.2 7.04 6.01 C15.18 13.07 23.6 21.4 27.3 31.74 C27.19 34.62 27.19 34.62 24.93 37.08 C24.39 37.47 24.39 37.47 21.62 39.44 C20.42 40.31 19.21 41.18 17.96 42.07 C13.44 45.13 8.88 48.1 4.27 51 C-0.91 54.33 -5.98 57.78 -11.06 61.25 C-11.97 61.87 -12.88 62.49 -13.82 63.13 C-14.71 63.74 -15.6 64.35 -16.52 64.98 C-17.39 65.57 -18.27 66.17 -19.17 66.79 C-20.98 68.04 -22.76 69.33 -24.53 70.64 C-31.3 75.62 -31.3 75.62 -36.81 75.62 C-38.92 73.54 -38.92 73.54 -41 70.69 C-51.06 57.76 -62.31 50.05 -78.81 47.62 C-93.23 46.68 -106.16 47.16 -117.81 56.62 C-120.78 60.86 -121.79 63.52 -122.81 68.62 C-121.29 74.72 -119.86 78.81 -114.81 82.62 C-102.06 89.93 -88.06 93.5 -73.96 97.29 C-61.14 100.74 -48.48 104.54 -35.88 108.69 C-35.13 108.93 -35.13 108.93 -31.37 110.15 C-19.45 114.13 -8.08 118.9 2.19 126.25 C3.2 126.96 4.21 127.68 5.25 128.41 C22.14 141.13 32.17 159.74 35.19 180.62 C36.21 209.17 33.23 234.77 13.62 256.94 C12.15 258.5 10.67 260.07 9.19 261.62 C8.18 262.78 7.17 263.93 6.12 265.12 C-24.83 292.64 -69.21 296.61 -108.81 294.62 C-115.26 294 -121.49 293 -127.81 291.62 C-128.56 291.47 -128.56 291.47 -132.32 290.68 C-166.3 283.1 -197.41 266.85 -216.94 237.12 C-219.26 233.45 -220.76 230.85 -221.81 226.62 C-218.31 222.24 -213.89 219.62 -209.12 216.75 C-203.87 213.57 -198.79 210.24 -193.77 206.69 C-187.41 202.24 -180.96 197.93 -174.5 193.62 C-173.06 192.65 -171.62 191.67 -170.14 190.66 C-168.76 189.74 -167.37 188.82 -165.95 187.88 C-164.7 187.03 -163.45 186.19 -162.16 185.33 C-158.81 183.62 -158.81 183.62 -153.81 184.62 C-151.86 186.81 -151.86 186.81 -150 189.62 C-138.29 206.45 -122.95 216.23 -102.71 220.12 C-87.98 222.03 -74.57 221.06 -61.25 214.31 C-56.73 210.78 -53.64 207.1 -51.81 201.62 C-51.45 196.03 -51.65 192.32 -54.81 187.62 C-67.54 174.36 -91.01 170.83 -108.38 166.31 C-133.78 159.64 -161.51 151.97 -181.81 134.62 C-182.77 133.83 -183.72 133.04 -184.7 132.22 C-201.3 117.87 -209.64 99.13 -211.69 77.38 C-212.67 54.02 -207.26 30.76 -191.25 13.12 C-189.45 11.28 -187.64 9.44 -185.81 7.62 C-184.64 6.37 -183.46 5.11 -182.25 3.81 C-135.43 -39.6 -49.89 -34.99 0 0 Z " fill="#18262B" transform="translate(1352.8125,350.375)"/>
<path d="M0 0 C1.66 0 3.32 0 5.03 0 C6.9 0 8.78 -0 10.71 -0.01 C12.77 0 14.83 0.01 16.89 0.02 C18.99 0.02 21.09 0.02 23.19 0.02 C27.6 0.02 32 0.03 36.41 0.04 C42.06 0.06 47.72 0.06 53.38 0.06 C57.71 0.06 62.05 0.07 66.39 0.07 C68.47 0.08 70.56 0.08 72.65 0.08 C75.56 0.08 78.47 0.09 81.38 0.1 C83.04 0.11 84.7 0.11 86.41 0.11 C90.2 0.25 90.2 0.25 92.2 1.25 C93.87 12.33 93.35 23.87 93.33 35.05 C93.33 35.97 93.33 35.97 93.34 40.63 C93.34 45.7 93.34 50.77 93.34 55.84 C93.33 61.33 93.34 66.81 93.34 72.3 C93.34 83.02 93.34 93.75 93.34 104.48 C93.34 113.2 93.34 121.92 93.34 130.65 C93.34 131.89 93.34 133.13 93.34 134.41 C93.34 136.94 93.34 139.46 93.34 141.99 C93.34 165.65 93.34 189.31 93.33 212.97 C93.33 233.25 93.33 253.54 93.33 273.83 C93.34 297.41 93.34 320.99 93.34 344.57 C93.34 347.08 93.34 349.6 93.34 352.12 C93.34 352.73 93.34 352.73 93.34 355.87 C93.34 364.58 93.34 373.28 93.34 381.99 C93.34 392.61 93.34 403.22 93.34 413.84 C93.33 419.25 93.33 424.67 93.34 430.08 C93.34 435.95 93.34 441.83 93.33 447.7 C93.33 448.55 93.33 448.55 93.34 452.86 C93.3 478.16 93.3 478.16 90.2 481.25 C87.23 481.44 84.25 481.49 81.27 481.49 C80.32 481.49 80.32 481.49 75.52 481.5 C73.43 481.49 71.35 481.49 69.26 481.48 C67.14 481.48 65.01 481.48 62.89 481.48 C58.43 481.47 53.98 481.47 49.52 481.45 C43.79 481.44 38.07 481.43 32.34 481.43 C27.95 481.43 23.57 481.43 19.18 481.42 C17.07 481.42 14.95 481.41 12.84 481.41 C9.9 481.41 6.95 481.4 4.01 481.39 C2.33 481.39 0.65 481.38 -1.08 481.38 C-4.8 481.25 -4.8 481.25 -5.8 480.25 C-5.9 477.72 -5.92 475.19 -5.92 472.66 C-5.93 471 -5.93 469.33 -5.93 467.62 C-5.93 465.76 -5.93 463.91 -5.93 461.99 C-5.93 460.04 -5.93 458.09 -5.94 456.08 C-5.94 450.64 -5.94 445.19 -5.94 439.75 C-5.94 433.89 -5.95 428.03 -5.95 422.17 C-5.96 410.68 -5.96 399.18 -5.96 387.69 C-5.96 378.36 -5.97 369.02 -5.97 359.69 C-5.98 333.25 -5.98 306.82 -5.98 280.38 C-5.98 278.95 -5.98 277.53 -5.98 276.06 C-5.98 274.63 -5.98 273.2 -5.98 271.73 C-5.98 248.57 -5.99 225.41 -6 202.24 C-6.02 178.49 -6.03 154.74 -6.02 130.99 C-6.02 117.65 -6.03 104.3 -6.04 90.95 C-6.05 79.59 -6.05 68.23 -6.04 56.87 C-6.04 51.06 -6.04 45.26 -6.05 39.46 C-6.06 33.18 -6.05 26.9 -6.04 20.63 C-6.05 18.77 -6.05 16.92 -6.06 15.01 C-6.05 13.34 -6.05 11.67 -6.04 9.96 C-6.04 9.23 -6.04 9.23 -6.05 5.56 C-5.68 0.71 -4.82 0.31 0 0 Z " fill="#277068" transform="translate(2570.795654296875,172.7527618408203)"/></g>
</svg>
